<?xml version="1.0" standalone="no"?><!DOCTYPE svg PUBLIC "-//W3C//DTD SVG 1.1//EN" "http://www.w3.org/Graphics/SVG/1.1/DTD/svg11.dtd"><svg t="1482403512126" class="icon" style="" viewBox="0 0 1024 1024" version="1.1" xmlns="http://www.w3.org/2000/svg" p-id="4878" xmlns:xlink="http://www.w3.org/1999/xlink" width="48" height="48"><defs><style type="text/css"></style></defs><path d="M753.09181 534.635035" p-id="4879" fill="#46B38D"></path><path d="M609.381407 398.045904" p-id="4880" fill="#46B38D"></path><path d="M372.319622 461.260683" p-id="4881" fill="#46B38D"></path><path d="M207.28206 351.395159" p-id="4882" fill="#46B38D"></path><path d="M554.535192 875.490834" p-id="4883" fill="#46B38D"></path><path d="M381.895768 777.997425" p-id="4884" fill="#46B38D"></path><path d="M512 5.112369c-281.35744 0-509.443816 228.085358-509.443816 509.443816s228.086376 509.443816 509.443816 509.443816c281.358458 0 509.443816-228.085358 509.443816-509.443816S793.35744 5.112369 512 5.112369zM187.1971 584.506338l-53.44314 0c-29.073606 0-52.648946-23.482684-52.648946-52.470761l0-131.109193c0-28.971786 23.574322-52.459561 52.648946-52.459561l53.44314 0L187.1971 584.506338zM443.03037 900.264592c-17.691178 0-33.063921 0.326841-47.939783 0.326841-45.492037 0-71.870474-32.520203-115.424882-106.756968-49.468097-84.342373-37.119401-127.570957-37.119401-127.570957s22.270011 5.531866 59.398576 12.933142c37.13671 7.405349 64.978297 18.84785 64.978297 18.84785s11.888472 32.703479 44.127653 78.099805C449.8248 830.72579 498.127062 900.264592 443.03037 900.264592zM691.271961 747.427069c-98.940267-114.10428-445.538699-106.224451-451.410643-141.751391l0-258.738187c5.825107-50.196108 284.152392-28.151119 429.674167-162.738473 147.076563-136.011813 203.089632 124.151851 203.089632 302.018699C872.625117 664.063184 791.042059 862.506782 691.271961 747.427069z" p-id="4885" fill="#46B38D"></path></svg>