<?xml version="1.0" standalone="no"?><!DOCTYPE svg PUBLIC "-//W3C//DTD SVG 1.1//EN" "http://www.w3.org/Graphics/SVG/1.1/DTD/svg11.dtd"><svg t="1485841394813" class="icon" style="" viewBox="0 0 1024 1024" version="1.1" xmlns="http://www.w3.org/2000/svg" p-id="3225" xmlns:xlink="http://www.w3.org/1999/xlink" width="48" height="48"><defs><style type="text/css"></style></defs><path d="M511.253498 64.644299l192.331423 168.409594 0.10847-84.905762 137.418766 0.146333 0.384763 202.89092 113.841791 129.012306-30.544667 34.981722-152.703891-177.533392 26.059516-12.0525 0.984421-132.22651-53.380768 0.085958-0.409322 118.599142-40.093137-16.5837L509.968226 125.860523 92.285335 515.179412 64.830029 480.19769 511.253498 64.644299 511.253498 64.644299zM177.211563 960.327842l233.69346 0 0.36839-254.454296 196.213847-0.349971 0.769526 254.804267 233.129618 0L841.386404 567.940057l-42.195008 0 0 347.814614-149.259442 0L649.931954 659.603733l-281.222963 0.584308 0 255.565607-149.300374 0L219.408617 567.940057l-42.195008 0L177.213609 960.327842 177.211563 960.327842 177.211563 960.327842zM177.211563 960.327842" p-id="3226" fill="#ffffff"></path></svg>